# xmcd
#
# Track frame offsets:
#	150
#	12816
#	26314
#	38191
#	52781
#	63842
#	76569
#	87020
#	98827
#	110848
#	124184
#	136034
#	154525
#	165301
#	183577
#	197207
#	212347
#	225850
#
# Disc length: 3162
#
# Revision: 1
# Processed by: cddbd v1.5.1PL0 Copyright (c) Steve Scherf et al.
# Submitted via: EasyCDDAExtractor 4.6.0.1
# Normalized: r0:DSETVAR1,TDELIM( - )
#
DISCID=c70c5812
DTITLE=Various Artist - Queens of Country
DYEAR=1900
DGENRE=Country
TTITLE0=Patsy Cline - I fall to peices
TTITLE1=Loretta Lynn - Coal Miner's Daughter
TTITLE2=C. Gayle - Dont make my brown eyes blue
TTITLE3=Jeannie C. Riley - Harper Calley P.T.A
TTITLE4=Reba Mcentire - Cant even get the blues
TTITLE5=Lynn anderson - Rose garden
TTITLE6=Connie Smith - Once a day
TTITLE7=Skeeter Davis - The end of the world
TTITLE8=Tammy Wynette - Stand by your man
TTITLE9=Dolly Parton - Here you come again
TTITLE10=Kitty Wells - Heartbreak, U.S.A.
TTITLE11=J. Newton - The sweetest thing Ive known
TTITLE12=Tanya Tucker - Would you lay with me
TTITLE13=Janie Frickie - Tell me a lie
TTITLE14=Dottie West - A lesson in leavin
TTITLE15=Jessi Colter - Im not Lisa
TTITLE16=Patti Page - Tennessee Waltz
TTITLE17=D. Boone - On the road to lovin me again
EXTD=
EXTT0=
EXTT1=
EXTT2=
EXTT3=
EXTT4=
EXTT5=
EXTT6=
EXTT7=
EXTT8=
EXTT9=
EXTT10=
EXTT11=
EXTT12=
EXTT13=
EXTT14=
EXTT15=
EXTT16=
EXTT17=
PLAYORDER=
